Coordinates
version=1
nRows=19
nColumns=34
inDegrees=yes

Units are S.I. units (second, meters, Newtons, ...)
If the header above contains a line with 'inDegrees', this indicates whether rotational values are in degrees (yes) or radians (no).

endheader
time	pelvis_tilt	pelvis_list	pelvis_rotation	pelvis_tx	pelvis_ty	pelvis_tz	hip_flexion_r	hip_adduction_r	hip_rotation_r	knee_angle_r	ankle_angle_r	subtalar_angle_r	mtp_angle_r	hip_flexion_l	hip_adduction_l	hip_rotation_l	knee_angle_l	ankle_angle_l	subtalar_angle_l	mtp_angle_l	lumbar_extension	lumbar_bending	lumbar_rotation	arm_flex_r	arm_add_r	arm_rot_r	elbow_flex_r	pro_sup_r	arm_flex_l	arm_add_l	arm_rot_l	elbow_flex_l	pro_sup_l
      1.73333330	     -2.87185055	     -0.98861992	      0.62032293	     -0.08952469	      1.24501679	     -0.09423519	      0.60873458	     -1.09483400	      2.57457455	      1.52078447	     10.25279548	     -4.80905225	      0.00000000	      1.25761985	     -2.70453494	      0.55065398	      0.00000000	      7.62177780	     -6.07630276	      0.00000000	     -6.74095369	      1.44226490	     -2.88728225	     -0.96593674	     -7.59036393	      7.64284306	     25.35366868	     85.40659395	      9.17482121	     -7.44689921	     21.34065583	     32.46174105	     91.48336855
      1.75000000	     -2.96040800	     -1.01606719	      0.68995075	     -0.08842394	      1.25308420	     -0.09489393	      0.64236945	     -1.12744510	      2.35002229	      1.53399448	     10.18343742	     -4.95054709	      0.00000000	      1.34732981	     -2.67998700	      0.47355442	      0.00000000	      7.54418226	     -6.14675623	      0.00000000	     -6.70831317	      1.54410141	     -3.01148561	     -0.61822345	     -7.59360487	      7.67178822	     25.46020223	     85.41449284	      9.69483924	     -7.15353708	     21.50761021	     32.79345752	     91.55341893
      1.76666670	     -2.96879122	     -1.02781027	      0.65370500	     -0.08895200	      1.25191462	     -0.09342008	      0.54611120	     -1.15049176	      2.21369011	      1.46692427	     10.19165475	     -5.03743992	      0.00000000	      1.33713908	     -2.65821969	      0.40955595	      0.00000000	      7.53506298	     -6.19214474	      0.00000000	     -6.47270402	      1.63393170	     -3.03052594	     -0.37275822	     -7.52795133	      7.69092905	     25.54555293	     85.41929394	     10.09305055	     -6.99510344	     21.53938136	     33.01480535	     91.57275354
      1.78333330	     -2.98591741	     -1.17872569	      0.93132723	     -0.08653451	      1.25321637	     -0.09609011	      0.40533916	     -1.01686708	      1.66249575	      1.32853594	      9.72888752	     -5.31250042	      0.00000000	      1.54538300	     -2.77269696	      0.44340429	      0.23896346	      7.35739564	     -6.27405726	      0.00000000	     -6.69184364	      1.92054082	     -2.76860619	     -0.15976395	     -7.66762886	      7.82600046	     25.52445058	     85.45747309	     10.70569373	     -6.67418597	     21.88415444	     33.88641353	     91.73909344
      1.80000000	     -2.82052358	     -1.20499000	      0.94335971	     -0.08376957	      1.25204501	     -0.09694864	      0.02074360	     -0.99729977	      1.63674273	      1.17223710	      9.52781459	     -5.75735533	      0.00000000	      1.30370123	     -2.76430203	      0.60851302	      0.28170593	      7.39828531	     -6.69299755	      0.00000000	     -6.93884118	      1.95154286	     -2.57219340	     -0.07283694	     -7.81878179	      8.29341032	     25.88435260	     85.59573359	     10.85578367	     -6.88899027	     23.18397803	     35.60963864	     92.47951412
      1.81666670	     -2.82224257	     -1.22443246	      0.84643714	     -0.08492259	      1.25585246	     -0.09474706	     -0.04551642	     -0.96749271	      1.52981183	      1.07404239	      9.52012452	     -5.80553666	      0.00000000	      1.28328662	     -2.78323970	      0.59016944	      0.33025123	      7.37436658	     -6.68329526	      0.00000000	     -6.72196408	      1.98372324	     -2.57069515	      0.13681136	     -7.78540467	      8.29802484	     25.95851520	     85.59821682	     11.09702560	     -6.76557628	     23.18188367	     35.71362824	     92.49040262
      1.83333330	     -2.83778719	     -1.27163750	      0.82451389	     -0.08096605	      1.25420648	     -0.09746355	     -0.16834159	     -0.93916230	      1.37158400	      0.98816292	      9.44492529	     -5.86404767	      0.00000000	      1.27781168	     -2.79318498	      0.56835174	      0.43175571	      7.34604935	     -6.65964622	      0.00000000	     -6.53120869	      2.03204510	     -2.52221455	      0.37929888	     -7.79929372	      8.29962982	     26.03513486	     85.60174457	     11.27488749	     -6.57909264	     23.19454821	     35.83073472	     92.50516626
      1.85000000	     -2.86565701	     -1.33295529	      0.90229354	     -0.08193375	      1.25720835	     -0.09577209	     -0.30945140	     -0.83982800	      1.19023761	      0.85688392	      9.33678391	     -5.92346429	      0.00000000	      1.33647469	     -2.84155850	      0.57056124	      0.50075570	      7.32554381	     -6.61540391	      0.00000000	     -6.39380302	      2.10112312	     -2.38163995	      0.66212649	     -7.83738668	      8.30356442	     26.12187909	     85.60761404	     11.38212264	     -6.43253966	     23.19970707	     35.92613454	     92.52201289
      1.86666670	     -2.83752996	     -1.55310724	      1.17204497	     -0.08123659	      1.25629655	     -0.09651749	     -0.60824634	     -0.56784708	      0.65660609	      0.49581083	      8.62688398	     -6.01915806	      0.00000000	      1.49761462	     -3.06756065	      0.82523033	      0.81376466	      7.50251064	     -6.31368621	      0.00000000	     -6.46952728	      2.44713960	     -2.20184645	      0.65392646	     -8.06179894	      8.41254288	     26.19352515	     85.66093365	     11.59160949	     -6.15124658	     23.16422869	     36.21099826	     92.64606668
      1.88333330	     -2.87694026	     -1.55189070	      1.17051798	     -0.07792072	      1.25173676	     -0.09744884	     -0.64467710	     -0.53818944	      0.64935823	      0.51580845	      8.62731434	     -6.02456211	      0.00000000	      1.47228245	     -3.04859786	      0.82852082	      0.84296706	      7.50397897	     -6.31083057	      0.00000000	     -6.46554724	      2.44267354	     -2.18905198	      0.67746450	     -8.06260589	      8.41238454	     26.20258044	     85.66134286	     11.58972800	     -6.15068228	     23.16381487	     36.21119235	     92.64723291
      1.90000000	     -2.79345677	     -1.53938778	      1.27252742	     -0.07824060	      1.25241791	     -0.09688749	     -0.81466762	     -0.50545662	      0.60186795	      0.54395595	      8.63946241	     -6.06617418	      0.00000000	      1.44332946	     -3.06727545	      0.92714490	      1.06740775	      7.51197688	     -6.25565565	      0.00000000	     -6.26673612	      2.40797580	     -1.97946014	      0.91486287	     -8.10384847	      8.40598524	     26.30535343	     85.66541653	     11.42727639	     -6.16353437	     23.16198545	     36.18495875	     92.65809059
      1.91666670	     -2.71460661	     -1.52808939	      1.50822391	     -0.07882785	      1.25580225	     -0.09687685	     -1.11139767	     -0.50557434	      0.48251328	      0.26496762	      8.57864719	     -6.17888445	      0.00000000	      1.61407739	     -3.06748805	      1.26378552	      1.67227487	      7.91313985	     -6.15303370	      0.00000000	     -6.22168404	      2.43438000	     -1.93807745	      0.80142317	     -8.23645323	      8.46350725	     26.45410904	     85.70943762	     11.21458647	     -6.07254317	     23.06575966	     36.09800366	     92.73585042
      1.93333330	     -2.66356351	     -1.49861444	      1.56150026	     -0.07781458	      1.25355024	     -0.09543978	     -1.17999010	     -0.50477601	      0.39044988	      0.23286939	      8.49755784	     -6.20474940	      0.00000000	      1.63776291	     -3.09216137	      1.38596183	      1.87388351	      7.88436814	     -6.08110260	      0.00000000	     -6.15998809	      2.37603155	     -1.76286425	      0.90426958	     -8.22843370	      8.47830441	     26.55628256	     85.72321534	     11.02978529	     -6.21638564	     23.01094408	     35.98305377	     92.75660472
      1.95000000	     -2.62412986	     -1.37441849	      1.84428658	     -0.07607828	      1.24848164	     -0.09494515	     -1.38658538	     -0.59909860	      0.26091751	      0.00645338	      8.38576551	     -6.28567804	      0.00000000	      1.80124433	     -3.01034783	      1.57690434	      2.33974876	      8.09896675	     -6.11424026	      0.00000000	     -6.03510114	      2.13172407	     -1.75147861	      0.69018480	     -8.17868335	      8.54706629	     26.75798318	     85.77383066	     10.81101438	     -6.37367375	     22.80616543	     35.70533550	     92.82107693
      1.96666670	     -2.57347346	     -1.34695573	      1.91206256	     -0.07364151	      1.25173847	     -0.09306548	     -1.47741990	     -0.57369681	      0.16166546	      0.03171256	      8.33502855	     -6.32275265	      0.00000000	      1.82050362	     -3.07226126	      1.66778676	      2.56686376	      8.04358248	     -6.07921997	      0.00000000	     -6.01190192	      2.06900194	     -1.51949672	      0.68156649	     -8.16058586	      8.56184287	     26.83177758	     85.78860332	     10.41542906	     -6.59260715	     22.73886948	     35.49579903	     92.83707680
      1.98333330	     -2.49468998	     -1.29869087	      2.00608048	     -0.07285062	      1.24837819	     -0.09417068	     -1.64066662	     -0.58750957	      0.04995450	      0.02210509	      8.31114518	     -6.38088169	      0.00000000	      1.82910950	     -3.07988742	      1.69980282	      2.87264059	      8.06609247	     -6.12050167	      0.00000000	     -5.92177623	      1.97341765	     -1.33927507	      0.51960374	     -8.16967019	      8.57945305	     26.88741294	     85.80688775	      9.95694641	     -6.83126845	     22.64518610	     35.23367511	     92.85277773
      2.00000000	     -2.69546526	     -1.23740702	      2.30868753	     -0.06979364	      1.25081314	     -0.09418667	     -1.55998974	     -0.62990627	     -0.24340453	      0.00000000	      8.16058674	     -6.76606091	      0.00000000	      2.17363875	     -3.04878405	      2.04125261	      3.22746040	      8.04094273	     -6.60584145	      0.00000000	     -5.27144945	      1.89286400	     -1.59915835	     -0.08918869	     -8.21525327	      8.67350356	     27.91938318	     86.11626959	      9.43289915	     -6.55895478	     21.01067966	     33.50142576	     93.11333666
      2.01666670	     -2.62716152	     -1.18406918	      2.27901164	     -0.07103141	      1.25549167	     -0.09413160	     -1.67604369	     -0.67478784	     -0.38222348	      0.00000000	      8.08471339	     -6.79794265	      0.00000000	      2.12360539	     -3.04061169	      2.06841377	      3.42649549	      7.96453033	     -6.60043371	      0.00000000	     -5.29899199	      1.83246785	     -1.31723398	     -0.19167290	     -8.29335782	      8.66695707	     27.87833383	     86.13032333	      8.88747430	     -6.84711653	     20.95165246	     33.27060003	     93.12887734
      2.03333330	     -2.48939769	     -1.15168428	      2.14850235	     -0.06968329	      1.25832835	     -0.09359361	     -1.90633296	     -0.68428543	     -0.65520513	      0.00000000	      7.82575192	     -6.82707574	      0.00000000	      1.88322505	     -3.02763519	      1.87666126	      3.44701553	      7.91288758	     -6.71824000	      0.00000000	     -5.14080939	      1.74484658	     -1.08784015	     -0.44212420	     -8.31746229	      8.67318233	     27.82821861	     86.16892032	      8.16395080	     -7.13817332	     20.78637680	     32.83590901	     93.15749980
